<mxfile host="app.diagrams.net" agent="Mozilla/5.0 (Macintosh; Intel Mac OS X 10_15_7) AppleWebKit/537.36 (KHTML, like Gecko) Chrome/129.0.0.0 Safari/537.36" version="24.8.0">
  <diagram name="第 1 页" id="qC2b2G2Op4qDPdREftL7">
    <mxGraphModel dx="1026" dy="650" grid="1" gridSize="10" guides="1" tooltips="1" connect="1" arrows="1" fold="1" page="1" pageScale="1" pageWidth="827" pageHeight="1169" math="0" shadow="0">
      <root>
        <mxCell id="0" />
        <mxCell id="1" parent="0" />
        <mxCell id="Cb99nYj2VXqeTvQXyxzO-3" value="" style="edgeStyle=orthogonalEdgeStyle;rounded=0;orthogonalLoop=1;jettySize=auto;html=1;" edge="1" parent="1" source="Cb99nYj2VXqeTvQXyxzO-1" target="Cb99nYj2VXqeTvQXyxzO-2">
          <mxGeometry relative="1" as="geometry" />
        </mxCell>
        <mxCell id="Cb99nYj2VXqeTvQXyxzO-1" value="标签更新接口" style="ellipse;whiteSpace=wrap;html=1;" vertex="1" parent="1">
          <mxGeometry x="260" y="110" width="90" height="60" as="geometry" />
        </mxCell>
        <mxCell id="Cb99nYj2VXqeTvQXyxzO-5" value="" style="edgeStyle=orthogonalEdgeStyle;rounded=0;orthogonalLoop=1;jettySize=auto;html=1;" edge="1" parent="1" source="Cb99nYj2VXqeTvQXyxzO-2" target="Cb99nYj2VXqeTvQXyxzO-4">
          <mxGeometry relative="1" as="geometry" />
        </mxCell>
        <mxCell id="Cb99nYj2VXqeTvQXyxzO-2" value="校验参数完整" style="rhombus;whiteSpace=wrap;html=1;" vertex="1" parent="1">
          <mxGeometry x="252.5" y="220" width="105" height="60" as="geometry" />
        </mxCell>
        <mxCell id="Cb99nYj2VXqeTvQXyxzO-9" value="" style="edgeStyle=orthogonalEdgeStyle;rounded=0;orthogonalLoop=1;jettySize=auto;html=1;" edge="1" parent="1" source="Cb99nYj2VXqeTvQXyxzO-4" target="Cb99nYj2VXqeTvQXyxzO-8">
          <mxGeometry relative="1" as="geometry" />
        </mxCell>
        <mxCell id="Cb99nYj2VXqeTvQXyxzO-4" value="校验标签是否存在" style="rhombus;whiteSpace=wrap;html=1;" vertex="1" parent="1">
          <mxGeometry x="242.5" y="320" width="125" height="50" as="geometry" />
        </mxCell>
        <mxCell id="Cb99nYj2VXqeTvQXyxzO-11" value="" style="edgeStyle=orthogonalEdgeStyle;rounded=0;orthogonalLoop=1;jettySize=auto;html=1;" edge="1" parent="1" source="Cb99nYj2VXqeTvQXyxzO-8" target="Cb99nYj2VXqeTvQXyxzO-10">
          <mxGeometry relative="1" as="geometry" />
        </mxCell>
        <mxCell id="Cb99nYj2VXqeTvQXyxzO-16" style="edgeStyle=orthogonalEdgeStyle;rounded=0;orthogonalLoop=1;jettySize=auto;html=1;entryX=0;entryY=0.5;entryDx=0;entryDy=0;" edge="1" parent="1" source="Cb99nYj2VXqeTvQXyxzO-8" target="Cb99nYj2VXqeTvQXyxzO-14">
          <mxGeometry relative="1" as="geometry">
            <mxPoint x="190" y="780" as="targetPoint" />
            <Array as="points">
              <mxPoint x="140" y="463" />
              <mxPoint x="140" y="770" />
            </Array>
          </mxGeometry>
        </mxCell>
        <mxCell id="Cb99nYj2VXqeTvQXyxzO-8" value="标签是否涉及odps更新" style="rhombus;whiteSpace=wrap;html=1;" vertex="1" parent="1">
          <mxGeometry x="257.5" y="420" width="95" height="85" as="geometry" />
        </mxCell>
        <mxCell id="Cb99nYj2VXqeTvQXyxzO-13" value="" style="edgeStyle=orthogonalEdgeStyle;rounded=0;orthogonalLoop=1;jettySize=auto;html=1;" edge="1" parent="1" source="Cb99nYj2VXqeTvQXyxzO-10" target="Cb99nYj2VXqeTvQXyxzO-12">
          <mxGeometry relative="1" as="geometry" />
        </mxCell>
        <mxCell id="Cb99nYj2VXqeTvQXyxzO-10" value="提交odps更新任务" style="shape=process;whiteSpace=wrap;html=1;backgroundOutline=1;" vertex="1" parent="1">
          <mxGeometry x="237.5" y="550" width="135" height="50" as="geometry" />
        </mxCell>
        <mxCell id="Cb99nYj2VXqeTvQXyxzO-15" value="" style="edgeStyle=orthogonalEdgeStyle;rounded=0;orthogonalLoop=1;jettySize=auto;html=1;" edge="1" parent="1" source="Cb99nYj2VXqeTvQXyxzO-12" target="Cb99nYj2VXqeTvQXyxzO-14">
          <mxGeometry relative="1" as="geometry" />
        </mxCell>
        <mxCell id="Cb99nYj2VXqeTvQXyxzO-12" value="写入标签刷新表" style="shape=process;whiteSpace=wrap;html=1;backgroundOutline=1;" vertex="1" parent="1">
          <mxGeometry x="241.25" y="640" width="127.5" height="40" as="geometry" />
        </mxCell>
        <mxCell id="Cb99nYj2VXqeTvQXyxzO-14" value="更新标签基础信息表" style="shape=process;whiteSpace=wrap;html=1;backgroundOutline=1;" vertex="1" parent="1">
          <mxGeometry x="232.5" y="750" width="145" height="40" as="geometry" />
        </mxCell>
      </root>
    </mxGraphModel>
  </diagram>
</mxfile>
